HIERARCHY
ROOT Hips
{
	OFFSET -3.958830 18.904000 13.208200
	CHANNELS 6 Xposition Yposition Zposition Zrotation Yrotation Xrotation 
	JOINT LHipJoint
	{
		OFFSET 0.000000 0.000000 0.000000
		CHANNELS 3 Zrotation Yrotation Xrotation
		JOINT LeftUpLeg
		{
			OFFSET 1.800000 -1.400000 0.085000
			CHANNELS 3 Zrotation Yrotation Xrotation
			JOINT LeftLeg
			{
				OFFSET 2.215000 -6.000000 0.000000
				CHANNELS 3 Zrotation Yrotation Xrotation
				JOINT LeftFoot
				{
					OFFSET 2.500000 -6.900000 0.000000
					CHANNELS 3 Zrotation Yrotation Xrotation
					JOINT LeftToeBase
					{
						OFFSET 0.200000 -0.500000 1.950000
						CHANNELS 3 Zrotation Yrotation Xrotation
						End Site
						{
							OFFSET 0.000000 0.000000 0.000000
						}
					}
				}
			}
		}
	}
	JOINT RHipJoint
	{
		OFFSET 0.000000 0.000000 0.000000
		CHANNELS 3 Zrotation Yrotation Xrotation
		JOINT RightUpLeg
		{
			OFFSET -1.800000 -1.400000 0.085000
			CHANNELS 3 Zrotation Yrotation Xrotation
			JOINT RightLeg
			{
				OFFSET -2.215000 -6.000000 0.000000
				CHANNELS 3 Zrotation Yrotation Xrotation
				JOINT RightFoot
				{
					OFFSET -2.500000 -6.900000 0.000000
					CHANNELS 3 Zrotation Yrotation Xrotation
					JOINT RightToeBase
					{
						OFFSET -0.200000 -0.500000 1.950000
						CHANNELS 3 Zrotation Yrotation Xrotation
						End Site
						{
							OFFSET 0.000000 0.000000 0.000000
						}
					}
				}
			}
		}
	}
	JOINT LowerBack
	{
		OFFSET 0.000000 0.000000 0.000000
		CHANNELS 3 Zrotation Yrotation Xrotation
		JOINT Spine
		{
			OFFSET -0.087000 1.940000 -0.288900
			CHANNELS 3 Zrotation Yrotation Xrotation
			JOINT Spine1
			{
				OFFSET 0.000000 1.950000 0.060000
				CHANNELS 3 Zrotation Yrotation Xrotation
				JOINT Neck
				{
					OFFSET 0.000000 0.000000 0.000000
					CHANNELS 3 Zrotation Yrotation Xrotation
					JOINT Neck1
					{
						OFFSET 0.000000 1.600000 0.340000
						CHANNELS 3 Zrotation Yrotation Xrotation
						JOINT Head
						{
							OFFSET 0.000000 1.667000 -0.240000
							CHANNELS 3 Zrotation Yrotation Xrotation
							End Site
							{
								OFFSET 0.000000 0.000000 0.000000
							}
						}
					}
				}
				JOINT LeftShoulder
				{
					OFFSET 0.000000 0.000000 0.000000
					CHANNELS 3 Zrotation Yrotation Xrotation
					JOINT LeftArm
					{
						OFFSET 2.700000 1.550000 -0.730000
						CHANNELS 3 Zrotation Yrotation Xrotation
						JOINT LeftForeArm
						{
							OFFSET 5.450000 0.000000 0.000000
							CHANNELS 3 Zrotation Yrotation Xrotation
							JOINT LeftHand
							{
								OFFSET 3.450000 0.000000 0.000000
								CHANNELS 3 Zrotation Yrotation Xrotation
								JOINT LeftHandIndex1
								{
									OFFSET 0.750000 0.000000 0.000000
									CHANNELS 3 Zrotation Yrotation Xrotation
									End Site
									{
										OFFSET 0.000000 0.000000 0.000000
									}
								}
							}
						}
					}
				}
				JOINT RightShoulder
				{
					OFFSET 0.000000 0.000000 0.000000
					CHANNELS 3 Zrotation Yrotation Xrotation
					JOINT RightArm
					{
						OFFSET -2.700000 1.550000 -0.730000
						CHANNELS 3 Zrotation Yrotation Xrotation
						JOINT RightForeArm
						{
							OFFSET -5.450000 0.000000 0.000000
							CHANNELS 3 Zrotation Yrotation Xrotation
							JOINT RightHand
							{
								OFFSET -3.450000 0.000000 0.000000
								CHANNELS 3 Zrotation Yrotation Xrotation
								JOINT RightHandIndex1
								{
									OFFSET -0.750000 0.000000 0.000000
									CHANNELS 3 Zrotation Yrotation Xrotation
									End Site
									{
										OFFSET 0.000000 0.000000 0.000000
									}
								}
							}
						}
					}
				}
			}
		}
	}
}
MOTION
Frames: 13
Frame Time: 0.016667
-1.161420 16.775490 -1.510140 -3.959268 -32.077435 -0.076893 -15.041885 14.118702 2.803197 15.057882 -0.961047 -6.015149 -7.723929 6.838836 11.442925 -0.493810 5.624418 2.962876 0.239520 0.010030 0.056220 18.311602 -10.626837 2.251068 -8.175888 0.696180 -16.441005 -1.875330 -2.544608 10.496623 0.240386 -2.996484 3.454589 0.355770 0.888570 0.202250 -3.609215 -3.702239 -6.643738 10.892950 -5.520852 10.079628 -7.410062 -4.990796 7.701628 -2.408591 -8.218882 -8.775962 -16.540893 10.840903 20.047520 0.012790 6.930410 2.931250 -3.935087 -0.668981 1.042651 -9.382654 -30.150621 14.594168 154.470377 -50.250900 -127.031547 -4.577686 3.136442 -0.006570 0.693060 -0.571540 0.236050 8.679539 2.852533 5.345230 6.780504 -6.906870 3.791135 -163.983735 41.343860 -146.689322 1.639555 -2.633172 -0.446400 0.368800 0.116200 -0.100220 
-1.202820 16.770190 -1.499460 -3.616584 -31.470421 -0.674227 -15.043691 14.193080 2.754558 14.906849 -0.918611 -5.913630 -6.952394 6.741714 12.015645 -0.470701 5.549500 2.981258 0.266690 0.045500 0.061850 18.300557 -10.657902 2.237054 -8.609835 0.502461 -15.598547 -1.427739 -2.693854 10.529429 0.208766 -3.065913 3.426078 0.358420 0.861260 0.209490 -3.564418 -3.783042 -6.620141 10.295644 -5.534573 9.998987 -7.307939 -4.967025 8.240333 -2.459304 -8.322300 -8.994614 -16.894884 10.632992 20.386571 0.489680 6.373340 2.704890 -3.473953 -0.640558 1.229073 -9.888916 -30.030379 14.646612 154.296429 -50.156486 -126.957323 -4.538479 3.164566 -0.007550 0.666080 -0.546360 0.249570 8.304110 2.971747 5.551992 6.705929 -7.606865 3.814766 -164.359513 40.848753 -147.497886 1.655579 -2.652277 -0.413600 0.348800 0.092150 -0.084220 
-1.275550 16.754560 -1.489180 -3.499777 -31.296238 -0.839758 -15.037209 14.245956 2.698159 14.974629 -0.905348 -5.954237 -6.130252 6.663686 12.729976 -0.516739 5.539697 2.978543 0.275620 0.062170 0.049610 18.299577 -10.722597 2.218610 -8.515369 0.482187 -15.614160 -1.357085 -2.805089 11.576961 0.211879 -3.109782 3.409818 0.384220 0.882880 0.205030 -3.552443 -3.747991 -6.563540 9.892747 -5.167707 9.524132 -7.072959 -4.599151 8.232359 -2.681991 -8.313803 -8.627468 -16.955027 10.716011 20.699391 1.359850 5.719950 2.148360 -3.438823 -0.114430 0.827705 -9.974371 -30.649827 15.240786 155.251709 -50.727212 -128.836091 -4.548811 3.174547 -0.004250 0.672990 -0.555730 0.251790 8.616793 2.555723 5.322455 5.190411 -8.390879 4.068986 -164.738217 40.283923 -147.570947 1.648339 -2.641946 -0.425850 0.381220 0.107940 -0.080710 
-1.352110 16.746610 -1.482290 -3.857581 -31.212685 -1.302461 -15.030734 14.313548 2.634237 15.512796 -0.849206 -5.723106 -5.155005 6.627531 13.676032 -0.534861 5.545207 2.949124 0.304460 0.094800 0.080860 18.298316 -10.799822 2.200358 -7.906279 0.435319 -15.109940 -1.538809 -2.925042 12.928917 0.180316 -3.165596 3.378480 0.395490 0.841320 0.209520 -3.531562 -3.703550 -6.529520 9.824353 -4.962785 9.561864 -7.061377 -4.275502 9.070426 -2.408037 -8.302864 -8.497144 -17.094792 10.776791 21.526098 1.192750 5.829120 0.852250 -3.643627 -0.044318 0.567485 -9.025099 -30.460312 14.917261 155.512524 -50.108295 -128.476185 -4.526608 3.162019 0.024440 0.644730 -0.521470 0.240090 8.150853 2.632230 5.400919 3.957998 -9.039024 4.125704 -165.269997 39.852441 -148.773039 1.659588 -2.619843 -0.411120 0.378570 0.101350 -0.092470 
-1.433400 16.742240 -1.483950 -4.387038 -31.028479 -1.977123 -15.013578 14.357398 2.592629 16.512353 -0.781158 -5.401273 -4.542129 6.741042 14.673427 -0.510148 5.611282 2.906116 0.317440 0.103290 0.105540 18.300531 -10.876316 2.197194 -7.494830 0.341961 -14.244533 -0.962507 -3.262634 14.314718 0.134076 -3.271533 3.340068 0.378500 0.792470 0.205180 -3.532983 -3.623340 -6.550952 9.888146 -4.752257 10.229641 -6.959138 -3.945621 10.095472 -2.082893 -8.342245 -8.854007 -17.366689 10.740190 22.540788 1.086890 5.884560 -0.157240 -3.736808 -0.822331 0.684761 -7.149805 -29.245376 13.750586 155.911062 -49.113031 -128.241499 -4.477601 3.133182 0.066770 0.599350 -0.478640 0.233140 7.554685 3.642957 5.982557 3.532299 -9.035998 4.163981 -165.966009 37.743538 -149.219641 1.682253 -2.565188 -0.396540 0.371230 0.087090 -0.100960 
-1.521580 16.732880 -1.488040 -4.832094 -30.801432 -2.357190 -15.001650 14.403312 2.548726 17.418150 -0.770700 -5.283992 -3.797915 6.774405 15.577925 -0.483917 5.646989 2.874138 0.324620 0.113560 0.102630 18.299072 -10.913244 2.217012 -7.196707 0.293767 -13.599659 -0.012295 -3.631199 15.304645 0.105350 -3.383494 3.297059 0.370150 0.764230 0.195730 -3.527415 -3.598281 -6.577449 9.876479 -4.675304 10.592012 -6.846888 -3.856100 10.603149 -1.850543 -8.446773 -9.289708 -17.773823 11.036087 23.273422 1.744160 5.720890 -0.121830 -3.009936 -1.041979 0.891416 -5.380120 -27.536961 12.892407 156.786190 -48.531759 -129.137309 -4.438193 3.155637 0.078780 0.566810 -0.462270 0.233520 6.422643 4.160577 6.466845 1.159787 -9.450363 5.545087 -169.203063 35.237376 -155.609552 1.726345 -2.556867 -0.381600 0.355850 0.077600 -0.096230 
-1.610610 16.726350 -1.495820 -4.948602 -30.474495 -2.912467 -15.001310 14.469170 2.478616 17.717300 -0.727641 -5.054970 -2.585477 6.584529 16.322159 -0.487484 5.604494 2.875018 0.353010 0.149300 0.125300 18.287434 -10.956138 2.234395 -7.199283 0.247937 -13.100263 1.193706 -4.118664 16.466125 0.058593 -3.528011 3.240787 0.378800 0.728780 0.197680 -3.486573 -3.594006 -6.577362 9.121272 -4.493222 10.700987 -6.322877 -3.754058 11.432716 -1.866651 -8.225691 -9.475696 -17.639900 11.522592 24.605407 1.840730 6.136350 -0.903870 -1.625758 -1.442239 1.020612 -2.927473 -26.386000 12.201477 158.485459 -48.543966 -131.996791 -4.404613 3.176550 0.105730 0.540480 -0.426170 0.238290 5.057714 4.675862 6.613286 -0.167933 -7.611032 6.492356 -170.617791 33.700909 -157.716745 1.730549 -2.537868 -0.367390 0.351370 0.057830 -0.101370 
-1.705190 16.713060 -1.496110 -4.878007 -30.088534 -3.044375 -14.981823 14.499129 2.387093 17.682841 -0.779339 -5.216085 -1.285567 6.295412 17.103550 -0.529990 5.553649 2.895038 0.372000 0.171070 0.135660 18.300502 -10.999992 2.264857 -7.287444 0.247532 -13.029201 2.599014 -4.649296 17.459536 0.033502 -3.690710 3.179527 0.403300 0.746630 0.194840 -3.538184 -3.525667 -6.523666 8.821303 -4.657629 10.110284 -6.716831 -3.970227 11.542674 -2.051388 -8.133717 -9.457047 -17.604889 12.417365 25.192639 2.551470 6.389140 -1.058890 0.621497 -0.816223 1.297425 -1.298724 -24.927285 12.311408 160.868173 -47.973204 -135.432223 -4.424695 3.194223 0.113050 0.548180 -0.428850 0.246810 3.174844 4.056134 6.070093 -2.706124 -5.644698 7.827861 -172.253188 32.798507 -160.083223 1.718205 -2.555536 -0.380820 0.377010 0.055100 -0.103420 
-1.803740 16.701940 -1.503080 -4.492549 -30.217844 -3.601184 -15.002196 14.574731 2.340151 17.664916 -0.710836 -4.940204 -0.344716 6.108178 17.569373 -0.545180 5.533522 2.887366 0.404500 0.215860 0.160400 18.274599 -11.000139 2.265032 -7.524582 0.248516 -12.876087 3.487999 -5.058465 18.482727 -0.003332 -3.819768 3.121048 0.426560 0.724270 0.202610 -3.446678 -3.632056 -6.509601 7.598961 -4.452461 9.891464 -6.119298 -3.791662 12.015408 -2.254995 -8.198258 -9.512626 -18.089671 13.074280 25.994672 2.659540 6.654760 -2.178270 3.023449 -0.186411 1.774685 -0.256870 -23.927372 12.707322 162.692084 -46.880823 -137.572106 -4.438482 3.195679 0.129200 0.535140 -0.400960 0.243530 1.168886 3.738892 5.488173 -6.026097 -4.036532 8.770122 -173.731250 31.993018 -162.822959 1.720576 -2.561499 -0.367340 0.383840 0.047130 -0.107080 
-1.899930 16.686200 -1.503300 -4.433984 -30.280254 -3.813164 -15.020150 14.618881 2.301190 18.049959 -0.667720 -4.963271 0.295803 6.060844 18.201371 -0.575649 5.600344 2.849945 0.398110 0.198530 0.149660 18.257083 -10.984619 2.286279 -7.102621 0.381504 -12.717757 3.892465 -5.280708 19.303317 -0.012796 -3.916636 3.084719 0.427850 0.737080 0.211210 -3.377790 -3.684788 -6.511638 6.950724 -4.004371 9.494385 -5.421519 -3.467599 12.237129 -2.361190 -8.299248 -9.671522 -18.566250 13.496419 26.642857 3.009250 6.552670 -2.194180 5.014278 0.102824 2.296772 1.415727 -22.864582 12.734246 162.024546 -45.768869 -134.527861 -4.486583 3.148909 0.147360 0.541840 -0.408160 0.235280 -0.580407 3.800728 5.112940 -9.575157 -3.039372 9.587369 -175.235797 31.006342 -165.699020 1.729085 -2.548361 -0.381140 0.392430 0.072670 -0.115560 
-1.988270 16.672660 -1.508890 -4.488322 -30.565432 -4.997286 -14.987460 14.654063 2.297996 18.801036 -0.520426 -3.841154 0.673230 6.158367 18.648707 -0.537750 5.696950 2.809013 0.428570 0.241020 0.163940 18.267838 -11.045549 2.320304 -6.851635 0.344728 -11.801855 4.242082 -5.555967 20.367933 -0.065002 -4.061397 3.027399 0.444130 0.701550 0.189860 -3.416331 -3.629335 -6.613787 6.740497 -3.591256 11.300663 -4.886121 -3.099362 11.470677 -2.788368 -8.627466 -9.686942 -19.470446 13.744618 26.708085 4.152210 5.868220 -3.327750 7.940083 1.105994 2.977443 3.209487 -21.351833 12.367839 159.968120 -46.045812 -130.324859 -4.481777 3.105354 0.167460 0.494450 -0.381820 0.238420 -2.659492 3.145993 4.036503 -14.340004 -2.667880 9.712183 -175.358163 29.937914 -164.046756 1.781508 -2.552478 -0.369430 0.400860 0.053130 -0.109730 
-2.074060 16.663560 -1.513220 -4.370780 -30.230521 -6.099968 -14.915886 14.645621 2.250376 19.179034 -0.477520 -3.173616 1.449653 6.088761 19.487663 -0.543433 5.765705 2.778193 0.444570 0.264360 0.149070 18.314915 -11.168858 2.362476 -7.048712 0.192234 -10.795964 4.810152 -5.881535 20.887851 -0.106982 -4.229274 2.962007 0.466430 0.707890 0.174390 -3.597855 -3.408213 -6.656706 7.011263 -3.376893 12.735062 -4.978143 -2.950711 10.192247 -3.675488 -8.961895 -9.393600 -20.410921 14.477256 26.711267 6.354910 4.911030 -4.106590 10.746595 1.667346 3.608400 5.704474 -20.604397 11.770616 156.351082 -47.304745 -124.273423 -4.503290 3.045936 0.183570 0.468800 -0.380930 0.244580 -3.776240 2.553207 2.367725 -19.228811 -1.709346 8.667201 -172.956415 28.947287 -152.644291 1.817035 -2.530109 -0.376820 0.427590 0.061250 -0.099460 
-2.136890 16.657560 -1.527990 -4.979439 -29.852134 -7.476573 -14.744291 14.520140 2.175626 19.937002 -0.383021 -2.290146 2.477697 5.973700 20.509138 -0.559696 5.862683 2.753613 0.414910 0.218990 0.118520 18.440594 -11.461306 2.483913 -6.732300 0.082673 -9.399040 5.153688 -6.231613 21.539678 -0.162376 -4.447158 2.902573 0.448180 0.735100 0.155960 -4.079998 -2.649247 -6.740207 9.364354 -3.526270 15.907913 -6.664608 -3.092352 7.842162 -4.271483 -8.943326 -8.945886 -20.143627 15.235312 27.268906 8.297480 4.602990 -4.666200 13.197581 1.881266 3.610659 10.514383 -18.125613 10.450490 152.500328 -48.851736 -118.363591 -4.505193 2.967626 0.235810 0.451490 -0.385240 0.243010 -5.143682 1.770859 0.941192 -22.499340 -0.100519 7.620938 -171.009244 31.148391 -146.193249 1.874813 -2.456112 -0.418070 0.468870 0.091760 -0.104860 
